<svg xmlns="http://www.w3.org/2000/svg" width="24" height="24"><rect width="24" height="24" opacity="0"></rect><g><path d="M12 12.7Q12.6 12.7 13.04 12.25Q13.49 11.81 13.49 11.21L13.49 2.78Q13.49 2.18 13.04 1.74Q12.6 1.3 12 1.3Q11.4 1.3 10.96 1.74Q10.51 2.18 10.51 2.78L10.51 11.21Q10.51 11.81 10.96 12.25Q11.4 12.7 12 12.7ZM12 22.68Q14.9 22.68 17.36 21.24Q19.82 19.8 21.26 17.35Q22.7 14.9 22.7 12Q22.7 9.07 21.23 6.58Q19.75 4.08 17.18 2.62Q16.66 2.33 16.07 2.5Q15.48 2.66 15.17 3.22Q14.86 3.74 15.02 4.36Q15.19 4.97 15.74 5.28Q17.64 6.31 18.67 8.08Q19.7 9.84 19.7 12Q19.7 14.16 18.7 15.92Q17.69 17.69 15.92 18.7Q14.16 19.7 12 19.7Q9.84 19.7 8.08 18.7Q6.31 17.69 5.3 15.92Q4.3 14.16 4.3 12Q4.3 9.84 5.34 8.08Q6.38 6.31 8.26 5.26Q8.81 4.92 8.98 4.33Q9.14 3.74 8.83 3.22Q8.52 2.66 7.93 2.5Q7.34 2.33 6.82 2.62Q4.27 4.03 2.78 6.55Q1.3 9.07 1.3 12Q1.3 14.9 2.74 17.35Q4.18 19.8 6.64 21.24Q9.1 22.68 12 22.68Z" fill="rgba(232,64,38,1)"></path></g></svg>