<svg width="24" height="24" viewBox="0 0 24 24" fill="none" xmlns="http://www.w3.org/2000/svg">
  <!-- 时钟轮廓 -->
  <circle cx="12" cy="12" r="11" stroke="#333333" stroke-width="2"/>
  <!-- 时钟指针 -->
  <line x1="12" y1="12" x2="12" y2="7" stroke="#333333" stroke-width="2" stroke-linecap="round"/>
  <line x1="12" y1="12" x2="16" y2="12" stroke="#333333" stroke-width="2" stroke-linecap="round"/>
  <!-- 声波 -->
  <path d="M4 17C4 17 5.5 14 8 14C10.5 14 12 17 12 17V19C12 19 10.5 16 8 16C5.5 16 4 19 4 19V17Z" fill="#333333"/>
  <path d="M4 13C4 13 6 10 8 10C10 10 12 13 12 13V15C12 15 10 12 8 12C6 12 4 15 4 15V13Z" fill="#333333"/>
  <path d="M4 9C4 9 6.5 6 8 6C9.5 6 12 9 12 9V11C12 11 9.5 8 8 8C6.5 8 4 11 4 11V9Z" fill="#333333"/>
</svg>